<svg xmlns="http://www.w3.org/2000/svg" viewBox="0 0 24 24" width="24" height="24">
  <path fill="#FF69B4" d="M12 6a2 2 0 0 0-2 2v1h4V8a2 2 0 0 0-2-2zm7 7H5a1 1 0 0 0-1 1v3a1 1 0 0 0 1 1h14a1 1 0 0 0 1-1v-3a1 1 0 0 0-1-1z"/>
  <path fill="#FFC0CB" d="M3 15v2a2 2 0 0 0 2 2h14a2 2 0 0 0 2-2v-2H3z"/>
  <path fill="#FFB6C1" d="M12 4c-1.1 0-2 .9-2 2h4c0-1.1-.9-2-2-2z"/>
  <circle fill="#FF1493" cx="12" cy="3" r="1"/>
  <circle fill="#FF69B4" cx="8" cy="12" r="1"/>
  <circle fill="#FF69B4" cx="12" cy="12" r="1"/>
  <circle fill="#FF69B4" cx="16" cy="12" r="1"/>
</svg>